<svg width="800" height="574" viewBox="0 0 800 574" fill="none" xmlns="http://www.w3.org/2000/svg">
<path d="M424.4 459.9C424.4 442.9 438.2 429.1 455.2 429.1" stroke="#646464" stroke-width="4" stroke-miterlimit="10"/>
<path d="M254.1 459.9C254.1 442.9 240.3 429.1 223.3 429.1M164.5 552.1H378.4" stroke="#646464" stroke-width="4" stroke-miterlimit="10"/>
<path d="M315.8 567.901C324.526 567.901 331.6 560.827 331.6 552.101C331.6 543.375 324.526 536.301 315.8 536.301C307.074 536.301 300 543.375 300 552.101C300 560.827 307.074 567.901 315.8 567.901Z" fill="#4ED1A1" stroke="#646464" stroke-width="4" stroke-miterlimit="10"/>
<path d="M362.7 567.901C371.427 567.901 378.5 560.827 378.5 552.101C378.5 543.375 371.427 536.301 362.7 536.301C353.974 536.301 346.9 543.375 346.9 552.101C346.9 560.827 353.974 567.901 362.7 567.901Z" fill="#4ED1A1" stroke="#646464" stroke-width="4" stroke-miterlimit="10"/>
<path d="M242.5 567.901C251.226 567.901 258.3 560.827 258.3 552.101C258.3 543.375 251.226 536.301 242.5 536.301C233.774 536.301 226.7 543.375 226.7 552.101C226.7 560.827 233.774 567.901 242.5 567.901Z" fill="#4ED1A1" stroke="#646464" stroke-width="4" stroke-miterlimit="10"/>
<path d="M776.2 429.1H179.9" stroke="#646464" stroke-width="4" stroke-miterlimit="10"/>
<path d="M485.2 444.901C493.927 444.901 501 437.827 501 429.101C501 420.375 493.927 413.301 485.2 413.301C476.474 413.301 469.4 420.375 469.4 429.101C469.4 437.827 476.474 444.901 485.2 444.901Z" fill="#9F5EFF" stroke="#646464" stroke-width="4" stroke-miterlimit="10"/>
<path d="M315.8 444.901C324.526 444.901 331.6 437.827 331.6 429.101C331.6 420.375 324.526 413.301 315.8 413.301C307.074 413.301 300 420.375 300 429.101C300 437.827 307.074 444.901 315.8 444.901Z" fill="#9F5EFF" stroke="#646464" stroke-width="4" stroke-miterlimit="10"/>
<path d="M776.2 444.901C784.926 444.901 792 437.827 792 429.101C792 420.375 784.926 413.301 776.2 413.301C767.474 413.301 760.4 420.375 760.4 429.101C760.4 437.827 767.474 444.901 776.2 444.901Z" fill="#9F5EFF" stroke="#646464" stroke-width="4" stroke-miterlimit="10"/>
<path d="M254.1 459.9C254.1 476.9 267.9 490.7 284.9 490.7H392.8M84.9004 275C84.9004 292 98.7004 305.8 115.7 305.8H133" stroke="#646464" stroke-width="4" stroke-miterlimit="10"/>
<path d="M315.8 506.401C324.526 506.401 331.6 499.327 331.6 490.601C331.6 481.875 324.526 474.801 315.8 474.801C307.074 474.801 300 481.875 300 490.601C300 499.327 307.074 506.401 315.8 506.401Z" fill="#4ED1A1" stroke="#646464" stroke-width="4" stroke-miterlimit="10"/>
<path d="M362.7 506.401C371.427 506.401 378.5 499.327 378.5 490.601C378.5 481.875 371.427 474.801 362.7 474.801C353.974 474.801 346.9 481.875 346.9 490.601C346.9 499.327 353.974 506.401 362.7 506.401Z" fill="#4ED1A1" stroke="#646464" stroke-width="4" stroke-miterlimit="10"/>
<path d="M392.8 490.601H393.7C410.7 490.601 424.5 476.801 424.5 459.801" stroke="#646464" stroke-width="4" stroke-miterlimit="10"/>
<path d="M57.2 306.1H21.5" stroke="#CCCCCC" stroke-width="4" stroke-linecap="round" stroke-linejoin="round" stroke-dasharray="2 10 2 10"/>
<path d="M762.1 306.1H244.9" stroke="#CCCCCC" stroke-width="4" stroke-linecap="round" stroke-linejoin="round" stroke-dasharray="2 10 2 10"/>
<path d="M531.5 367.6H21.2998" stroke="#CCCCCC" stroke-width="4" stroke-linecap="round" stroke-linejoin="round" stroke-dasharray="2 10 2 10"/>
<path d="M761.5 367.6H709.7" stroke="#CCCCCC" stroke-width="4" stroke-linecap="round" stroke-linejoin="round" stroke-dasharray="2 10 2 10"/>
<path d="M761.3 244.6H679" stroke="#CCCCCC" stroke-width="4" stroke-linecap="round" stroke-linejoin="round" stroke-dasharray="2 10 2 10"/>
<path d="M84.8996 275.4C84.8996 258.4 71.0996 244.6 54.0996 244.6M211.7 275C211.7 292 197.9 305.8 180.9 305.8H132.9M211.7 275.4C211.7 258.4 225.5 244.6 242.5 244.6M273.2 429.1C256.2 429.1 242.4 415.3 242.4 398.3V336.5C242.4 319.5 228.6 305.7 211.6 305.7" stroke="#646464" stroke-width="4" stroke-miterlimit="10"/>
<path d="M148.7 567.901C157.426 567.901 164.5 560.827 164.5 552.101C164.5 543.375 157.426 536.301 148.7 536.301C139.974 536.301 132.9 543.375 132.9 552.101C132.9 560.827 139.974 567.901 148.7 567.901Z" fill="#4ED1A1" stroke="#646464" stroke-width="4" stroke-miterlimit="10"/>
<path d="M645 244.6H39.2002" stroke="#646464" stroke-width="4" stroke-miterlimit="10"/>
<path d="M23.7399 260.402C32.4652 260.27 39.4312 253.09 39.299 244.365C39.1669 235.639 31.9865 228.673 23.2613 228.806C14.5361 228.938 7.57003 236.118 7.7022 244.843C7.83437 253.569 15.0147 260.535 23.7399 260.402Z" fill="#B3E3FF" stroke="#646464" stroke-width="4" stroke-miterlimit="10"/>
<path d="M315.8 260.401C324.526 260.401 331.6 253.327 331.6 244.601C331.6 235.875 324.526 228.801 315.8 228.801C307.074 228.801 300 235.875 300 244.601C300 253.327 307.074 260.401 315.8 260.401Z" fill="#B3E3FF" stroke="#646464" stroke-width="4" stroke-miterlimit="10"/>
<path d="M645 260.401C653.726 260.401 660.8 253.327 660.8 244.601C660.8 235.875 653.726 228.801 645 228.801C636.274 228.801 629.2 235.875 629.2 244.601C629.2 253.327 636.274 260.401 645 260.401Z" fill="#B3E3FF" stroke="#646464" stroke-width="4" stroke-miterlimit="10"/>
<path d="M49 139.1H91.5V176.6H49V139.1Z" fill="#B3E3FF" stroke="#646464" stroke-width="4" stroke-miterlimit="10" stroke-linecap="round" stroke-linejoin="round"/>
<path d="M62.6004 162.399H61.4004L58.9004 156.099H60.3004L62.1004 160.899L63.9004 156.099H65.2004L62.6004 162.399ZM67.3004 155.099C67.8004 154.299 68.7004 153.699 69.9004 153.699C71.1004 153.699 71.9004 154.199 72.5004 155.099C73.1004 155.899 73.3004 156.999 73.3004 158.199C73.3004 159.399 73.1004 160.399 72.5004 161.299C72.0004 162.099 71.1004 162.699 69.9004 162.699C68.7004 162.699 67.9004 162.199 67.3004 161.299C66.7004 160.499 66.5004 159.399 66.5004 158.199C66.5004 156.999 66.7004 155.899 67.3004 155.099ZM68.5004 160.899C68.8004 161.199 69.2004 161.399 69.8004 161.399C70.4004 161.399 70.8004 161.199 71.1004 160.899C71.6004 160.399 71.8004 159.499 71.8004 158.199C71.8004 156.899 71.6004 155.999 71.1004 155.499C70.8004 155.199 70.4004 154.999 69.8004 154.999C69.2004 154.999 68.8004 155.199 68.5004 155.499C68.0004 155.999 67.8004 156.899 67.8004 158.199C67.8004 159.499 68.0004 160.299 68.5004 160.899ZM75.8004 160.599C76.3004 160.599 76.7004 160.999 76.7004 161.499C76.7004 161.999 76.3004 162.399 75.8004 162.399C75.3004 162.399 74.9004 161.999 74.9004 161.499C74.9004 160.999 75.3004 160.599 75.8004 160.599ZM79.7004 162.399V156.499H77.7004V155.599C78.9004 155.599 79.7004 154.899 79.9004 153.999H81.0004V162.399H79.7004Z" fill="#1D1D1D"/>
<path d="M70.3002 210.7V193.1M78.5002 204.2L70.3002 212.4L62.2002 204.2" stroke="#646464" stroke-width="4" stroke-miterlimit="10" stroke-linecap="round" stroke-linejoin="round"/>
<path d="M294.6 139.1H337.1V176.6H294.6V139.1Z" fill="#B3E3FF" stroke="#646464" stroke-width="4" stroke-miterlimit="10" stroke-linecap="round" stroke-linejoin="round"/>
<path d="M306.5 162.399H305.3L302.8 156.099H304.2L306 160.899L307.8 156.099H309.1L306.5 162.399ZM311.2 155.099C311.7 154.299 312.6 153.699 313.8 153.699C315 153.699 315.8 154.199 316.4 155.099C317 155.899 317.2 156.999 317.2 158.199C317.2 159.399 317 160.399 316.4 161.299C315.9 162.099 315 162.699 313.8 162.699C312.6 162.699 311.8 162.199 311.2 161.299C310.6 160.499 310.4 159.399 310.4 158.199C310.4 156.999 310.6 155.899 311.2 155.099ZM312.4 160.899C312.7 161.199 313.1 161.399 313.7 161.399C314.3 161.399 314.7 161.199 315 160.899C315.5 160.399 315.7 159.499 315.7 158.199C315.7 156.899 315.5 155.999 315 155.499C314.7 155.199 314.3 154.999 313.7 154.999C313.1 154.999 312.7 155.199 312.4 155.499C311.9 155.999 311.7 156.899 311.7 158.199C311.7 159.499 311.9 160.299 312.4 160.899ZM319.7 160.599C320.2 160.599 320.6 160.999 320.6 161.499C320.6 161.999 320.2 162.399 319.7 162.399C319.2 162.399 318.8 161.999 318.8 161.499C318.8 160.999 319.2 160.599 319.7 160.599ZM322.7 156.799V156.499C322.7 155.099 323.8 153.799 325.6 153.799C327.4 153.799 328.4 154.999 328.4 156.399C328.4 157.499 327.8 158.399 326.8 158.999L325.1 160.099C324.6 160.399 324.2 160.799 324.1 161.299H328.4V162.499H322.5C322.5 161.099 323.1 160.099 324.5 159.099L325.9 158.199C326.7 157.699 327.1 157.099 327.1 156.399C327.1 155.599 326.6 154.899 325.5 154.899C324.4 154.899 323.9 155.699 323.9 156.599V156.999L322.7 156.799Z" fill="#1D1D1D"/>
<path d="M315.8 210.7V193.1M324 204.2L315.8 212.4L307.7 204.2" stroke="#646464" stroke-width="4" stroke-miterlimit="10" stroke-linecap="round" stroke-linejoin="round"/>
<path d="M623.8 139.1H666.3V176.6H623.8V139.1Z" fill="#B3E3FF" stroke="#646464" stroke-width="4" stroke-miterlimit="10" stroke-linecap="round" stroke-linejoin="round"/>
<path d="M636.8 162.399H635.6L633.1 156.099H634.5L636.3 160.899L638.1 156.099H639.4L636.8 162.399ZM642.4 162.399V156.499H640.4V155.599C641.6 155.599 642.4 154.899 642.6 153.999H643.7V162.399H642.4ZM647 160.599C647.5 160.599 647.9 160.999 647.9 161.499C647.9 161.999 647.5 162.399 647 162.399C646.5 162.399 646.1 161.999 646.1 161.499C646.1 160.999 646.5 160.599 647 160.599ZM650.6 155.099C651.1 154.299 652 153.699 653.2 153.699C654.4 153.699 655.2 154.199 655.8 155.099C656.4 155.899 656.6 156.999 656.6 158.199C656.6 159.399 656.4 160.399 655.8 161.299C655.3 162.099 654.4 162.699 653.2 162.699C652 162.699 651.2 162.199 650.6 161.299C650 160.499 649.8 159.399 649.8 158.199C649.8 156.999 650.1 155.899 650.6 155.099ZM651.9 160.899C652.2 161.199 652.6 161.399 653.2 161.399C653.8 161.399 654.2 161.199 654.5 160.899C655 160.399 655.2 159.499 655.2 158.199C655.2 156.899 655 155.999 654.5 155.499C654.2 155.199 653.8 154.999 653.2 154.999C652.6 154.999 652.2 155.199 651.9 155.499C651.4 155.999 651.2 156.899 651.2 158.199C651.2 159.499 651.4 160.299 651.9 160.899Z" fill="#1D1D1D"/>
<path d="M645 210.7V193.1M653.2 204.2L645 212.4L636.9 204.2" stroke="#646464" stroke-width="4" stroke-miterlimit="10" stroke-linecap="round" stroke-linejoin="round"/>
<path d="M64.4996 429.1H20.5996" stroke="#CCCCCC" stroke-width="4" stroke-linecap="round" stroke-linejoin="round" stroke-dasharray="2 10 2 10"/>
<path d="M246.9 490.6H21.2002" stroke="#CCCCCC" stroke-width="4" stroke-linecap="round" stroke-linejoin="round" stroke-dasharray="2 10 2 10"/>
<path d="M762.5 490.6H425.1" stroke="#CCCCCC" stroke-width="4" stroke-linecap="round" stroke-linejoin="round" stroke-dasharray="2 10 2 10"/>
<path d="M109.9 552.1H21.0996" stroke="#CCCCCC" stroke-width="4" stroke-linecap="round" stroke-linejoin="round" stroke-dasharray="2 10 2 10"/>
<path d="M762.3 552.1H393.8" stroke="#CCCCCC" stroke-width="4" stroke-linecap="round" stroke-linejoin="round" stroke-dasharray="2 10 2 10"/>
<path d="M283.5 5.19922H379.7V55.1992H283.5V5.19922Z" fill="#4CD3D6" stroke="#646464" stroke-width="4" stroke-miterlimit="10" stroke-linecap="round" stroke-linejoin="round"/>
<path d="M308.8 31.8008H307.2V36.1008H305.7V25.6008H309.7C311.7 25.6008 313 27.0008 313 28.8008C313 30.3008 312 31.5008 310.4 31.8008L312.9 36.3008H311.2L308.8 31.8008ZM309.5 30.5008C310.7 30.5008 311.5 29.8008 311.5 28.7008C311.5 27.6008 310.7 26.9008 309.5 26.9008H307.3V30.5008H309.5ZM321.6 34.1008C321.2 35.4008 320 36.4008 318.4 36.4008C316.5 36.4008 314.8 35.0008 314.8 32.5008C314.8 30.2008 316.4 28.7008 318.3 28.7008C320.5 28.7008 321.8 30.2008 321.8 32.5008V33.0008H316.4C316.4 34.3008 317.4 35.2008 318.6 35.2008C319.8 35.2008 320.4 34.6008 320.6 33.7008L321.6 34.1008ZM320.2 31.8008C320.2 30.8008 319.5 30.0008 318.2 30.0008C317 30.0008 316.3 30.9008 316.2 31.8008H320.2ZM324.2 36.2008V25.3008H325.6V36.2008H324.2ZM335.1 34.1008C334.7 35.4008 333.5 36.4008 331.9 36.4008C330 36.4008 328.3 35.0008 328.3 32.5008C328.3 30.2008 329.9 28.7008 331.8 28.7008C334 28.7008 335.3 30.2008 335.3 32.5008V33.0008H329.9C329.9 34.3008 330.9 35.2008 332.1 35.2008C333.3 35.2008 333.9 34.6008 334.1 33.7008L335.1 34.1008ZM333.7 31.8008C333.7 30.8008 333 30.0008 331.7 30.0008C330.5 30.0008 329.8 30.9008 329.7 31.8008H333.7ZM339.4 32.1008L341.4 31.8008C341.8 31.7008 342 31.5008 342 31.3008C342 30.6008 341.5 30.0008 340.4 30.0008C339.4 30.0008 338.9 30.6008 338.8 31.5008L337.4 31.2008C337.6 29.8008 338.8 28.9008 340.4 28.9008C342.6 28.9008 343.4 30.1008 343.4 31.5008V35.0008C343.4 35.6008 343.5 36.0008 343.5 36.2008H342C342 36.0008 341.9 35.7008 341.9 35.2008C341.6 35.7008 340.9 36.4008 339.6 36.4008C338.1 36.4008 337.2 35.4008 337.2 34.2008C337.2 33.0008 338.2 32.2008 339.4 32.1008ZM341.9 33.1008V32.8008L339.7 33.1008C339.1 33.2008 338.7 33.5008 338.7 34.2008C338.7 34.7008 339.2 35.2008 339.9 35.2008C341 35.2008 341.9 34.7008 341.9 33.1008ZM346.9 33.9008C347 34.7008 347.6 35.2008 348.6 35.2008C349.4 35.2008 349.8 34.7008 349.8 34.2008C349.8 33.8008 349.5 33.4008 348.9 33.3008L347.7 33.0008C346.6 32.8008 345.9 32.0008 345.9 31.0008C345.9 29.8008 347.1 28.7008 348.5 28.7008C350.5 28.7008 351.1 30.0008 351.2 30.6008L350 31.1008C349.9 30.7008 349.6 29.9008 348.5 29.9008C347.8 29.9008 347.3 30.4008 347.3 30.9008C347.3 31.3008 347.6 31.7008 348.1 31.8008L349.3 32.1008C350.6 32.4008 351.3 33.2008 351.3 34.2008C351.3 35.2008 350.4 36.4008 348.7 36.4008C346.7 36.4008 345.9 35.1008 345.8 34.3008L346.9 33.9008ZM360 34.1008C359.6 35.4008 358.4 36.4008 356.8 36.4008C354.9 36.4008 353.2 35.0008 353.2 32.5008C353.2 30.2008 354.8 28.7008 356.7 28.7008C358.9 28.7008 360.2 30.2008 360.2 32.5008V33.0008H354.8C354.8 34.3008 355.8 35.2008 357 35.2008C358.2 35.2008 358.8 34.6008 359 33.7008L360 34.1008ZM358.6 31.8008C358.6 30.8008 357.9 30.0008 356.6 30.0008C355.4 30.0008 354.7 30.9008 354.6 31.8008H358.6Z" fill="#1D1D1D"/>
<path d="M421.3 5.19922H517.5V55.1992H421.3V5.19922Z" fill="#9F5EFF" stroke="#646464" stroke-width="4" stroke-miterlimit="10" stroke-linecap="round" stroke-linejoin="round"/>
<path d="M441.7 36.2008V25.6008H445.4C448.1 25.6008 450.5 27.4008 450.5 30.9008C450.5 34.4008 448.1 36.2008 445.4 36.2008H441.7ZM445.3 34.9008C447.3 34.9008 448.9 33.6008 448.9 30.9008C448.9 28.2008 447.3 26.9008 445.3 26.9008H443.1V34.9008H445.3ZM459.3 34.1008C458.9 35.4008 457.7 36.4008 456.1 36.4008C454.2 36.4008 452.5 35.0008 452.5 32.5008C452.5 30.2008 454.1 28.7008 455.9 28.7008C458.1 28.7008 459.4 30.2008 459.4 32.5008V33.0008H454C454 34.3008 455 35.2008 456.2 35.2008C457.4 35.2008 458 34.6008 458.2 33.7008L459.3 34.1008ZM457.9 31.8008C457.9 30.8008 457.2 30.0008 455.9 30.0008C454.7 30.0008 454 30.9008 453.9 31.8008H457.9ZM465.4 36.2008H464L461 29.0008H462.6L464.7 34.6008L466.8 29.0008H468.3L465.4 36.2008ZM476.1 34.1008C475.7 35.4008 474.5 36.4008 472.9 36.4008C471 36.4008 469.3 35.0008 469.3 32.5008C469.3 30.2008 470.9 28.7008 472.8 28.7008C475 28.7008 476.3 30.2008 476.3 32.5008V33.0008H470.9C470.9 34.3008 471.9 35.2008 473.1 35.2008C474.3 35.2008 474.9 34.6008 475.1 33.7008L476.1 34.1008ZM474.7 31.8008C474.7 30.8008 474 30.0008 472.7 30.0008C471.5 30.0008 470.8 30.9008 470.7 31.8008H474.7ZM478.7 36.2008V25.3008H480.1V36.2008H478.7ZM490.1 32.6008C490.1 34.8008 488.6 36.4008 486.4 36.4008C484.2 36.4008 482.7 34.8008 482.7 32.6008C482.7 30.4008 484.2 28.8008 486.4 28.8008C488.5 28.7008 490.1 30.4008 490.1 32.6008ZM488.6 32.6008C488.6 30.9008 487.6 30.0008 486.4 30.0008C485.2 30.0008 484.2 30.9008 484.2 32.6008C484.2 34.3008 485.2 35.2008 486.4 35.2008C487.6 35.2008 488.6 34.2008 488.6 32.6008ZM492.6 39.0008V29.0008H494V30.1008C494.4 29.4008 495.2 28.8008 496.4 28.8008C498.6 28.8008 499.7 30.5008 499.7 32.6008C499.7 34.7008 498.5 36.4008 496.3 36.4008C495.2 36.4008 494.3 35.9008 494 35.2008V39.0008H492.6ZM496.1 30.1008C494.8 30.1008 494 31.2008 494 32.6008C494 34.1008 494.9 35.2008 496.1 35.2008C497.4 35.2008 498.2 34.1008 498.2 32.6008C498.3 31.1008 497.5 30.1008 496.1 30.1008Z" fill="white"/>
<path d="M145.8 5.19922H242V55.1992H145.8V5.19922Z" fill="#FF5E33" stroke="#646464" stroke-width="4" stroke-miterlimit="10" stroke-linecap="round" stroke-linejoin="round"/>
<path d="M180.9 36.1992V31.4992H175.5V36.1992H174V25.5992H175.5V30.0992H180.9V25.5992H182.4V36.1992H180.9ZM192.4 32.5992C192.4 34.7992 190.9 36.3992 188.7 36.3992C186.5 36.3992 185 34.7992 185 32.5992C185 30.3992 186.5 28.7992 188.7 28.7992C190.9 28.6992 192.4 30.3992 192.4 32.5992ZM191 32.5992C191 30.8992 190 29.9992 188.8 29.9992C187.6 29.9992 186.6 30.8992 186.6 32.5992C186.6 34.2992 187.6 35.1992 188.8 35.1992C190 35.1992 191 34.1992 191 32.5992ZM196.8 28.9992H198.4V30.2992H196.8V33.9992C196.8 34.6992 197.1 34.9992 197.8 34.9992C198 34.9992 198.2 34.9992 198.4 34.8992V36.0992C198.3 36.0992 197.9 36.1992 197.4 36.1992C196.2 36.1992 195.4 35.3992 195.4 34.0992V30.0992H194V28.9992H194.4C195.2 28.9992 195.5 28.4992 195.5 27.8992V26.6992H196.8V28.9992ZM204.6 25.3992V26.6992C204.5 26.6992 204.3 26.5992 204 26.5992C203.5 26.5992 202.9 26.7992 202.9 27.7992V28.9992H207.7V36.1992H206.3V30.2992H202.9V36.1992H201.4V30.2992H200.1V28.9992H201.4V27.7992C201.4 26.1992 202.5 25.2992 203.8 25.2992C204.2 25.2992 204.5 25.3992 204.6 25.3992ZM206.9 25.1992C207.5 25.1992 207.9 25.5992 207.9 26.1992C207.9 26.7992 207.4 27.1992 206.9 27.1992C206.3 27.1992 205.9 26.6992 205.9 26.1992C205.9 25.5992 206.4 25.1992 206.9 25.1992ZM212.4 32.4992L209.8 28.9992H211.5L213.3 31.4992L215 28.9992H216.7L214.1 32.4992C214.5 33.0992 216.3 35.5992 216.8 36.1992H215.1L213.2 33.4992L211.4 36.1992H209.7L212.4 32.4992Z" fill="white"/>
<path d="M559.1 5.19922H655.3V55.1992H559.1V5.19922Z" fill="#4ED1A1" stroke="#646464" stroke-width="4" stroke-miterlimit="10" stroke-linecap="round" stroke-linejoin="round"/>
<path d="M581.6 35.6996V25.0996H588.1V26.4996H583.1V29.8996H587.6V31.2996H583.1V35.7996L581.6 35.6996ZM596.3 33.5996C595.9 34.8996 594.7 35.8996 593.1 35.8996C591.2 35.8996 589.5 34.4996 589.5 31.9996C589.5 29.6996 591.1 28.1996 593 28.1996C595.2 28.1996 596.5 29.6996 596.5 31.9996V32.4996H591.1C591.1 33.7996 592.1 34.6996 593.3 34.6996C594.5 34.6996 595.1 34.0996 595.3 33.1996L596.3 33.5996ZM594.8 31.2996C594.8 30.2996 594.1 29.4996 592.8 29.4996C591.6 29.4996 590.9 30.3996 590.8 31.2996H594.8ZM600.6 31.5996L602.6 31.2996C603 31.1996 603.2 30.9996 603.2 30.7996C603.2 30.0996 602.7 29.4996 601.6 29.4996C600.6 29.4996 600.1 30.0996 600 30.9996L598.7 30.6996C598.9 29.2996 600.1 28.3996 601.7 28.3996C603.9 28.3996 604.7 29.5996 604.7 30.9996V34.5996C604.7 35.1996 604.8 35.5996 604.8 35.7996H603.4C603.4 35.5996 603.3 35.2996 603.3 34.7996C603 35.2996 602.3 35.9996 601 35.9996C599.5 35.9996 598.6 34.9996 598.6 33.7996C598.4 32.4996 599.3 31.6996 600.6 31.5996ZM603.1 32.5996V32.2996L600.9 32.5996C600.3 32.6996 599.9 32.9996 599.9 33.6996C599.9 34.1996 600.4 34.6996 601.1 34.6996C602.2 34.6996 603.1 34.1996 603.1 32.5996ZM609.3 28.4996H610.9V29.7996H609.3V33.5996C609.3 34.2996 609.6 34.5996 610.3 34.5996C610.5 34.5996 610.7 34.5996 610.9 34.4996V35.6996C610.8 35.6996 610.4 35.7996 609.9 35.7996C608.7 35.7996 607.9 34.9996 607.9 33.6996V29.6996H606.5V28.3996H606.9C607.7 28.3996 608 27.8996 608 27.2996V26.0996H609.3V28.4996ZM616.1 35.8996C614.4 35.8996 613.4 34.5996 613.4 32.9996V28.4996H614.8V32.7996C614.8 33.7996 615.3 34.6996 616.4 34.6996C617.5 34.6996 618.1 33.8996 618.1 32.8996V28.5996H619.5V34.4996C619.5 35.0996 619.5 35.5996 619.6 35.7996H618.3C618.3 35.5996 618.2 35.1996 618.2 34.8996C617.9 35.5996 617 35.8996 616.1 35.8996ZM626.8 29.8996H626.2C625 29.8996 624.2 30.4996 624.2 32.0996V35.6996H622.8V28.4996H624.2V29.7996C624.7 28.6996 625.6 28.3996 626.4 28.3996H626.9V29.8996H626.8ZM635.2 33.5996C634.8 34.8996 633.6 35.8996 632 35.8996C630.1 35.8996 628.4 34.4996 628.4 31.9996C628.4 29.6996 630 28.1996 631.9 28.1996C634.1 28.1996 635.4 29.6996 635.4 31.9996V32.4996H630C630 33.7996 631 34.6996 632.2 34.6996C633.4 34.6996 634 34.0996 634.2 33.1996L635.2 33.5996ZM633.8 31.2996C633.8 30.2996 633.1 29.4996 631.8 29.4996C630.6 29.4996 629.9 30.3996 629.8 31.2996H633.8Z" fill="#1D1D1D"/>
<path d="M696.8 5.19922H793V55.1992H696.8V5.19922Z" fill="#4ED1A1" stroke="#646464" stroke-width="4" stroke-miterlimit="10" stroke-linecap="round" stroke-linejoin="round"/>
<path d="M719.4 35.6996V25.0996H725.9V26.4996H720.9V29.8996H725.4V31.2996H720.9V35.7996L719.4 35.6996ZM734 33.5996C733.6 34.8996 732.4 35.8996 730.8 35.8996C728.9 35.8996 727.2 34.4996 727.2 31.9996C727.2 29.6996 728.8 28.1996 730.6 28.1996C732.8 28.1996 734.1 29.6996 734.1 31.9996V32.4996H728.7C728.7 33.7996 729.7 34.6996 730.9 34.6996C732.1 34.6996 732.7 34.0996 732.9 33.1996L734 33.5996ZM732.6 31.2996C732.6 30.2996 731.9 29.4996 730.6 29.4996C729.4 29.4996 728.7 30.3996 728.6 31.2996H732.6ZM738.4 31.5996L740.3 31.2996C740.7 31.1996 740.9 30.9996 740.9 30.7996C740.9 30.0996 740.4 29.4996 739.3 29.4996C738.3 29.4996 737.8 30.0996 737.7 30.9996L736.3 30.6996C736.5 29.2996 737.7 28.3996 739.3 28.3996C741.5 28.3996 742.3 29.5996 742.3 30.9996V34.5996C742.3 35.1996 742.4 35.5996 742.4 35.7996H741C741 35.5996 740.9 35.2996 740.9 34.7996C740.6 35.2996 739.9 35.9996 738.6 35.9996C737.1 35.9996 736.2 34.9996 736.2 33.7996C736.2 32.4996 737.1 31.6996 738.4 31.5996ZM740.9 32.5996V32.2996L738.7 32.5996C738.1 32.6996 737.7 32.9996 737.7 33.6996C737.7 34.1996 738.1 34.6996 738.9 34.6996C739.9 34.6996 740.9 34.1996 740.9 32.5996ZM747.1 28.4996H748.7V29.7996H747.1V33.5996C747.1 34.2996 747.4 34.5996 748.1 34.5996C748.3 34.5996 748.5 34.5996 748.7 34.4996V35.6996C748.6 35.6996 748.2 35.7996 747.7 35.7996C746.5 35.7996 745.7 34.9996 745.7 33.6996V29.6996H744.3V28.3996H744.7C745.5 28.3996 745.8 27.8996 745.8 27.2996V26.0996H747.1V28.4996ZM753.9 35.8996C752.2 35.8996 751.2 34.5996 751.2 32.9996V28.4996H752.6V32.7996C752.6 33.7996 753.1 34.6996 754.2 34.6996C755.3 34.6996 755.9 33.8996 755.9 32.8996V28.5996H757.3V34.4996C757.3 35.0996 757.3 35.5996 757.4 35.7996H756.1C756.1 35.5996 756 35.1996 756 34.8996C755.7 35.5996 754.8 35.8996 753.9 35.8996ZM764.5 29.8996H763.9C762.7 29.8996 761.9 30.4996 761.9 32.0996V35.6996H760.5V28.4996H761.9V29.7996C762.4 28.6996 763.3 28.3996 764.1 28.3996H764.6V29.8996H764.5ZM773 33.5996C772.6 34.8996 771.4 35.8996 769.8 35.8996C767.9 35.8996 766.2 34.4996 766.2 31.9996C766.2 29.6996 767.8 28.1996 769.7 28.1996C771.9 28.1996 773.2 29.6996 773.2 31.9996V32.4996H767.8C767.8 33.7996 768.8 34.6996 770 34.6996C771.2 34.6996 771.8 34.0996 772 33.1996L773 33.5996ZM771.6 31.2996C771.6 30.2996 770.9 29.4996 769.6 29.4996C768.4 29.4996 767.7 30.3996 767.6 31.2996H771.6Z" fill="#1D1D1D"/>
<path d="M84.9004 275V398.4C84.9004 415.4 98.7004 429.2 115.7 429.2H211.4" stroke="#646464" stroke-width="4" stroke-miterlimit="10"/>
<path d="M195.6 444.8C204.271 444.8 211.3 437.771 211.3 429.1C211.3 420.43 204.271 413.4 195.6 413.4C186.93 413.4 179.9 420.43 179.9 429.1C179.9 437.771 186.93 444.8 195.6 444.8Z" fill="#9F5EFF" stroke="#646464" stroke-width="4" stroke-miterlimit="10"/>
<path d="M148.7 444.901C157.426 444.901 164.5 437.827 164.5 429.101C164.5 420.375 157.426 413.301 148.7 413.301C139.974 413.301 132.9 420.375 132.9 429.101C132.9 437.827 139.974 444.901 148.7 444.901Z" fill="#9F5EFF" stroke="#646464" stroke-width="4" stroke-miterlimit="10"/>
<path d="M148.7 321.901C157.426 321.901 164.5 314.827 164.5 306.101C164.5 297.375 157.426 290.301 148.7 290.301C139.974 290.301 132.9 297.375 132.9 306.101C132.9 314.827 139.974 321.901 148.7 321.901Z" fill="#FF5E33" stroke="#646464" stroke-width="4" stroke-miterlimit="10" stroke-linecap="round" stroke-linejoin="round"/>
<path d="M536.5 398.4C536.5 415.4 522.7 429.2 505.7 429.2M760.5 429.2H737.5C720.5 429.2 706.7 415.4 706.7 398.4C706.7 381.4 692.9 367.6 675.9 367.6H568.1H567.2C550.2 367.6 536.4 381.4 536.4 398.4" stroke="#646464" stroke-width="4" stroke-miterlimit="10"/>
<path d="M645 383.401C653.726 383.401 660.8 376.327 660.8 367.601C660.8 358.875 653.726 351.801 645 351.801C636.274 351.801 629.2 358.875 629.2 367.601C629.2 376.327 636.274 383.401 645 383.401Z" fill="#4CD3D6" stroke="#646464" stroke-width="4" stroke-miterlimit="10" stroke-linejoin="round"/>
<path d="M598.2 383.401C606.926 383.401 614 376.327 614 367.601C614 358.875 606.926 351.801 598.2 351.801C589.474 351.801 582.4 358.875 582.4 367.601C582.4 376.327 589.474 383.401 598.2 383.401Z" fill="#4CD3D6" stroke="#646464" stroke-width="4" stroke-miterlimit="10" stroke-linejoin="round"/>
<path d="M148.7 444.9V536.4M164.5 305.7H211.7M645 351.9V260.4" stroke="#646464" stroke-width="4" stroke-miterlimit="10"/>
<path d="M8 5.19922H104.2V55.1992H8V5.19922Z" fill="#B3E3FF" stroke="#646464" stroke-width="4" stroke-miterlimit="10" stroke-linecap="round" stroke-linejoin="round"/>
<path d="M40.9004 36.2988V26.2988H42.9004L45.3004 33.3988C45.5004 34.0988 45.7004 34.5988 45.8004 34.8988C45.9004 34.4988 46.1004 33.9988 46.3004 33.2988L48.7004 26.2988H50.5004V36.2988H49.2004V27.8988L46.3004 36.2988H45.1004L42.2004 27.7988V36.2988H40.9004Z" fill="#414141"/>
<path d="M57.9008 35.3988C57.4008 35.7988 57.0008 36.0988 56.6008 36.1988C56.2008 36.3988 55.7008 36.3988 55.2008 36.3988C54.4008 36.3988 53.8008 36.1988 53.4008 35.7988C53.0008 35.3988 52.8008 34.8988 52.8008 34.2988C52.8008 33.8988 52.9008 33.5988 53.0008 33.2988C53.2008 32.9988 53.4008 32.7988 53.6008 32.5988C53.9008 32.3988 54.2008 32.2988 54.5008 32.1988C54.7008 32.0988 55.1008 32.0988 55.6008 31.9988C56.6008 31.8988 57.3008 31.6988 57.8008 31.5988C57.8008 31.3988 57.8008 31.2988 57.8008 31.2988C57.8008 30.7988 57.7008 30.3988 57.5008 30.1988C57.2008 29.8988 56.7008 29.7988 56.1008 29.7988C55.5008 29.7988 55.1008 29.8988 54.8008 30.0988C54.5008 30.2988 54.3008 30.6988 54.2008 31.1988L53.0008 30.9988C53.1008 30.4988 53.3008 30.0988 53.5008 29.7988C53.8008 29.4988 54.1008 29.1988 54.6008 29.0988C55.1008 28.8988 55.6008 28.7988 56.2008 28.7988C56.8008 28.7988 57.3008 28.8988 57.7008 28.9988C58.1008 29.0988 58.4008 29.2988 58.6008 29.5988C58.8008 29.7988 58.9008 30.0988 59.0008 30.3988C59.0008 30.5988 59.1008 30.9988 59.1008 31.4988V33.0988C59.1008 34.1988 59.1008 34.9988 59.2008 35.2988C59.3008 35.5988 59.4008 35.8988 59.5008 36.1988H58.2008C58.0008 36.0988 57.9008 35.7988 57.9008 35.3988ZM57.8008 32.6988C57.4008 32.8988 56.7008 32.9988 55.8008 33.1988C55.3008 33.2988 54.9008 33.3988 54.7008 33.3988C54.5008 33.3988 54.3008 33.5988 54.2008 33.7988C54.1008 33.9988 54.0008 34.1988 54.0008 34.3988C54.0008 34.6988 54.1008 34.9988 54.4008 35.1988C54.6008 35.3988 55.0008 35.4988 55.5008 35.4988C56.0008 35.4988 56.4008 35.3988 56.8008 35.1988C57.2008 34.9988 57.4008 34.6988 57.6008 34.2988C57.7008 33.9988 57.8008 33.5988 57.8008 33.0988V32.6988Z" fill="#414141"/>
<path d="M61.6006 27.6988V26.2988H62.8006V27.6988H61.6006ZM61.6006 36.2988V28.9988H62.8006V36.2988H61.6006Z" fill="#414141"/>
<path d="M65.4004 36.2988V28.9988H66.5004V29.9988C67.0004 29.1988 67.8004 28.7988 68.8004 28.7988C69.2004 28.7988 69.6004 28.8988 70.0004 28.9988C70.4004 29.1988 70.6004 29.3988 70.8004 29.5988C71.0004 29.7988 71.1004 30.1988 71.2004 30.4988C71.2004 30.6988 71.3004 31.0988 71.3004 31.6988V36.1988H70.1004V31.7988C70.1004 31.2988 70.1004 30.8988 70.0004 30.6988C69.9004 30.4988 69.7004 30.2988 69.5004 30.0988C69.3004 29.9988 69.0004 29.8988 68.6004 29.8988C68.1004 29.8988 67.6004 30.0988 67.2004 30.3988C66.8004 30.6988 66.6004 31.3988 66.6004 32.2988V36.2988H65.4004Z" fill="#414141"/>
</svg>
